<svg width="58" height="69" viewBox="0 0 58 69" fill="none" xmlns="http://www.w3.org/2000/svg">
<path d="M55.5012 65.09C55.5012 51.9076 55.5012 33.252 55.5012 20.0968C55.5012 19.5272 55.5012 18.8391 55.5012 18.2694V18.1881C55.4768 16.6085 55.2866 15.0629 54.8876 13.5344C53.7163 8.93176 50.7973 4.96682 46.7503 2.48128C42.207 -0.176896 36.9253 0.0917768 32.1786 2.34309C27.9553 4.36655 23.9009 6.72484 20.054 9.39538C13.3815 13.6132 11.3974 15.5947 6.33216 15.5947C4.96636 15.5947 4.96636 17.1393 6.33216 17.1393H18.7249C23.0874 17.2131 27.3905 18.1632 31.3784 19.9331C32.6972 20.4967 32.3692 21.0063 30.9697 20.6928C27.9362 20.0133 24.5923 19.9364 20.5867 20.6655C16.1236 21.5768 11.993 23.6867 8.63849 26.7684C5.18288 29.5183 2.65492 33.2629 1.39633 37.4961C-0.476867 43.1226 -0.166836 49.2477 2.26492 54.6564C4.69668 60.065 9.07252 64.3621 14.5244 66.6953C17.9185 68.0943 21.8184 68.8459 25.4238 68.8459C29.0292 68.8459 32.6345 67.7033 33.9145 67.1493C36.924 65.8466 38.9926 64.4881 40.6697 62.8449C43.2915 60.276 47.9893 61.4194 47.9893 65.09C47.9893 65.4816 47.9893 65.9218 47.9893 66.3768C47.9893 67.7488 49.1015 68.8611 50.4735 68.8611H56.867C57.2442 68.8611 57.5499 68.5554 57.5499 68.1782C57.5499 67.7927 57.2257 67.4877 56.8724 67.3333C56.1177 67.0036 55.5012 66.1495 55.5012 65.09ZM33.9145 63.5353C26.6995 65.3797 20.8271 63.698 15.4836 58.6665C7.34635 50.9497 6.07151 38.0657 13.0696 29.5215C15.0377 26.9361 17.6562 24.9188 20.6581 23.6751C23.6599 22.4315 26.9379 22.006 30.1578 22.4421C39.6513 23.3643 48.1954 33.4681 48.0326 45.2264C48.0191 54.5707 40.0039 62.3418 33.9145 63.5353ZM47.9893 22.4237C47.9354 26.7765 43.0356 28.0968 40.0989 24.8835C38.8805 23.5503 37.5102 22.3295 35.9353 21.33C30.6952 17.7719 25.6411 15.9766 19.3073 15.9361C17.9415 15.9274 17.9415 15.5947 18.6244 14.5703C23.0999 8.16901 30.4019 3.63149 38.9867 5.17757C41.1567 5.6042 43.1493 6.67041 44.7083 8.23901C46.2672 9.8076 47.2099 11.5984 47.6231 13.771C47.8308 14.7073 47.9534 15.6606 47.9893 16.619C47.9893 18.7754 48.0139 20.4325 47.9893 22.4237Z" fill="#E1E3FC"/>
</svg>
