<svg width="349" height="163" viewBox="0 0 349 163" fill="none" xmlns="http://www.w3.org/2000/svg">
<path d="M63.65 30.89C63.65 20.48 63.65 10.6 55.32 3.82999C39.08 -9.06001 -12.19 19.6 22.54 17.36C28.78 17.36 32.43 18.92 32.43 19.96C32.43 21 26.71 21 20.98 22.56C17.41 23.63 14.08 25.44 11.17 27.64C8.33997 29.78 5.89999 32.46 4.12999 35.52C-8.58001 57.47 17.55 82.05 42.32 69.91C52.1 66.15 63.89 80.02 63.89 67.98C63.89 58.71 63.66 30.89 63.66 30.89H63.65ZM39.2 67.83C16.97 73.91 0.819973 44.05 17.86 29.32C45.96 6.42001 71.46 56.9 39.2 67.83ZM53.18 11.4C55.6 15.96 57.6 26.19 50.62 27.71C45.25 28.17 40.85 22.93 36.71 20.39C32.43 17.34 27.32 15.85 21.87 15.57C20.46 15.5 18.82 15.06 18.51 14.31C18.26 13.75 19.07 12.67 19.66 12.06C23.73 8.84 29.9 6.86001 35.05 5.60001C41.32 4.15001 48.81 5.35001 52.72 10.69L53.18 11.4Z" fill="#2563eb"/>
<path d="M226.77 73H217.68L243.96 1.42999H252.91L279.19 73H270.1L248.71 12.75H248.15L226.76 73H226.77ZM230.13 45.04H266.76V52.73H230.13V45.04Z" fill="#2563eb"/>
<path d="M100.93 73H78.84V1.42999H101.91C108.85 1.42999 114.79 2.85999 119.73 5.70999C124.67 8.55999 128.46 12.65 131.09 17.98C133.72 23.3 135.04 29.67 135.04 37.08C135.04 44.49 133.71 50.95 131.06 56.32C128.4 61.69 124.54 65.81 119.46 68.69C114.38 71.57 108.21 73.01 100.94 73.01L100.93 73ZM87.51 65.31H100.37C106.29 65.31 111.19 64.17 115.08 61.89C118.97 59.61 121.87 56.36 123.78 52.14C125.69 47.92 126.65 42.9 126.65 37.08C126.65 31.26 125.71 26.32 123.82 22.14C121.93 17.96 119.11 14.74 115.36 12.49C111.61 10.24 106.94 9.12 101.35 9.12H87.51V65.32V65.31Z" fill="#2563eb"/>
<path d="M205.35 1.42999V73H196.96L157.96 16.8H157.26V73H148.59V1.42999H156.98L196.12 57.77H196.82V1.42999H205.35Z" fill="#2563eb"/>
<path d="M348.28 1.42999V73H339.89L300.89 16.8H300.19V73H291.52V1.42999H299.91L339.05 57.77H339.75V1.42999H348.28Z" fill="#2563eb"/>
<path d="M1.15002 89.71H11.49L35.81 149.12H36.65L60.97 89.71H71.31V161.28H63.2V106.9H62.5L40.13 161.28H32.3L9.92999 106.9H9.22998V161.28H1.12V89.71H1.15002Z" stroke="#2563eb" stroke-width="1.4" stroke-miterlimit="10"/>
<path d="M86.69 161.29V89.72H129.89V97.41H95.36V121.59H127.65V129.28H95.36V153.6H130.45V161.29H86.7H86.69Z" stroke="#2563eb" stroke-width="1.4" stroke-miterlimit="10"/>
<path d="M143.58 89.71H153.92L178.24 149.12H179.08L203.4 89.71H213.74V161.28H205.63V106.9H204.93L182.56 161.28H174.73L152.36 106.9H151.66V161.28H143.55V89.71H143.58Z" stroke="#2563eb" stroke-width="1.4" stroke-miterlimit="10"/>
<path d="M288.19 125.32C288.19 132.76 286.85 139.19 284.16 144.61C281.47 150.03 277.79 154.21 273.1 157.15C268.41 160.09 263.06 161.56 257.04 161.56C251.02 161.56 245.67 160.09 240.98 157.15C236.29 154.21 232.61 150.03 229.92 144.61C227.23 139.19 225.89 132.76 225.89 125.32C225.89 117.88 227.23 111.45 229.92 106.03C232.61 100.61 236.29 96.43 240.98 93.49C245.67 90.55 251.02 89.08 257.04 89.08C263.06 89.08 268.41 90.55 273.1 93.49C277.79 96.43 281.47 100.61 284.16 106.03C286.85 111.45 288.19 117.88 288.19 125.32ZM279.93 125.32C279.93 119.21 278.91 114.05 276.88 109.85C274.85 105.65 272.1 102.47 268.65 100.31C265.19 98.15 261.33 97.07 257.06 97.07C252.79 97.07 248.92 98.15 245.47 100.31C242.01 102.47 239.27 105.65 237.24 109.85C235.21 114.05 234.19 119.21 234.19 125.32C234.19 131.43 235.21 136.59 237.24 140.79C239.27 144.99 242.02 148.17 245.47 150.33C248.93 152.49 252.79 153.57 257.06 153.57C261.33 153.57 265.2 152.49 268.65 150.33C272.11 148.17 274.85 144.99 276.88 140.79C278.91 136.59 279.93 131.43 279.93 125.32Z" stroke="#2563eb" stroke-width="1.38" stroke-miterlimit="10"/>
<path d="M338.54 107.65C338.13 104.16 336.45 101.44 333.51 99.52C330.57 97.59 326.96 96.62 322.69 96.62C319.56 96.62 316.83 97.13 314.5 98.14C312.17 99.15 310.35 100.54 309.05 102.31C307.75 104.08 307.1 106.09 307.1 108.34C307.1 110.22 307.55 111.84 308.46 113.18C309.37 114.52 310.53 115.64 311.96 116.52C313.39 117.4 314.88 118.13 316.44 118.69C318 119.25 319.44 119.71 320.75 120.05L327.92 121.98C329.76 122.46 331.81 123.13 334.07 123.98C336.33 124.83 338.51 125.99 340.59 127.44C342.67 128.9 344.39 130.77 345.74 133.04C347.1 135.32 347.77 138.11 347.77 141.42C347.77 145.23 346.78 148.68 344.79 151.76C342.8 154.84 339.91 157.29 336.1 159.1C332.3 160.92 327.68 161.82 322.26 161.82C317.2 161.82 312.83 161 309.14 159.37C305.45 157.74 302.56 155.46 300.45 152.54C298.35 149.62 297.16 146.23 296.88 142.37H305.71C305.94 145.04 306.84 147.24 308.42 148.97C310 150.7 311.99 151.99 314.42 152.83C316.85 153.67 319.46 154.09 322.26 154.09C325.52 154.09 328.45 153.56 331.05 152.49C333.65 151.42 335.7 149.93 337.22 148.01C338.74 146.09 339.5 143.84 339.5 141.27C339.5 138.93 338.84 137.02 337.53 135.55C336.22 134.08 334.5 132.88 332.36 131.96C330.22 131.04 327.91 130.24 325.43 129.55L316.74 127.07C311.22 125.48 306.86 123.22 303.64 120.28C300.42 117.34 298.81 113.49 298.81 108.73C298.81 104.78 299.88 101.32 302.03 98.37C304.18 95.42 307.07 93.12 310.72 91.48C314.36 89.84 318.44 89.02 322.94 89.02C327.44 89.02 331.54 89.83 335.07 91.45C338.61 93.07 341.42 95.28 343.5 98.09C345.58 100.89 346.68 104.08 346.79 107.64H338.52L338.54 107.65Z" stroke="#2563eb" stroke-width="1.38" stroke-miterlimit="10"/>
</svg>
