<?xml version="1.0" encoding="UTF-8"?>
<svg id="Layer_2" data-name="Layer 2" xmlns="http://www.w3.org/2000/svg" viewBox="0 0 142.8 164.45">
  <defs>
    <style>
      .cls-1 {
        fill: #2563eb;
      }
    </style>
  </defs>
  <g id="Layer_4" data-name="Layer 4">
    <path class="cls-1" d="M142.27,68.83c0-23.56,0-45.94-18.85-61.25C86.65-21.61-29.39,43.28,49.21,38.2c14.13,0,22.38,3.53,22.38,5.89s-12.96,2.36-25.91,5.89c-8.09,2.43-15.62,6.52-22.21,11.51-6.39,4.84-11.92,10.9-15.94,17.84-28.78,49.68,30.37,105.32,86.45,77.84,22.14-8.51,48.83,22.88,48.82-4.38,0-20.99-.53-83.96-.53-83.96ZM86.9,152.46C36.6,166.23.02,98.62,38.61,65.29c63.61-51.83,121.32,62.43,48.29,87.16h0ZM118.57,24.71c5.49,10.33,10.02,33.47-5.79,36.92-12.15,1.05-22.12-10.82-31.49-16.57-9.69-6.9-21.26-10.28-33.6-10.91-3.19-.16-6.91-1.14-7.6-2.85-.56-1.27,1.26-3.71,2.61-5.09,9.21-7.28,23.17-11.76,34.83-14.63,14.2-3.28,31.15-.56,40,11.53l1.04,1.6Z"/>
  </g>
</svg>